<?xml version="1.0" encoding="iso-8859-1"?>
<!-- Generator: Adobe Illustrator 19.0.0, SVG Export Plug-In . SVG Version: 6.00 Build 0)  -->
<svg xmlns="http://www.w3.org/2000/svg" xmlns:xlink="http://www.w3.org/1999/xlink" version="1.1" id="Layer_1" x="0px" y="0px" viewBox="0 0 512 512" style="enable-background:new 0 0 512 512;" xml:space="preserve">
<path style="fill:#FF7945;" d="M327.655,35.492c-2.171-8.721-11.301-15.857-20.288-15.857H204.632  c-8.987,0-18.117,7.135-20.288,15.857L172.02,84.997L256,117.678l83.98-32.681L327.655,35.492z"/>
<g>
	<rect x="19.064" y="402.77" style="fill:#1F1A78;" width="85.962" height="89.6"/>
	<rect x="406.975" y="402.77" style="fill:#1F1A78;" width="85.962" height="89.6"/>
</g>
<path style="fill:#FFD83D;" d="M503.83,306.312c0-5.991-2.625-15.142-5.839-20.197l-21.831-34.38l-33.618-135.026  c-4.347-17.441-22.604-31.711-40.579-31.711H110.036c-17.974,0-36.232,14.271-40.579,31.711L35.84,251.735l-21.831,34.38  c-3.214,5.055-5.839,14.205-5.839,20.197l55.852,30.502L8.17,367.316v57.235h135.419L256,391.816l112.411,32.735H503.83v-57.235  l-55.852-30.502L503.83,306.312z"/>
<path style="fill:#FFFFFF;" d="M419.746,251.735c17.528,0,30.395-16.464,26.16-33.472l-23.484-94.327  c-2.458-9.86-13.947-18.839-24.105-18.839H113.684c-10.159,0-21.648,8.98-24.104,18.836l-23.486,94.331  c-4.234,17.009,8.632,33.472,26.16,33.472h327.493V251.735z"/>
<g>
	<path style="fill:#FF7945;" d="M77.094,293.458c16.842,0,30.502,16.526,30.502,36.929c0,20.391-13.661,36.929-30.502,36.929H8.17   v-73.859H77.094z"/>
	<path style="fill:#FF7945;" d="M503.83,293.458v76.037h-68.924c-16.842,0-30.502-17.027-30.502-38.019   c0-21.005,13.661-38.019,30.502-38.019H503.83z"/>
</g>
<polygon style="fill:#5D8AE1;" points="346.624,370.029 368.411,424.551 143.589,424.551 165.376,370.029 "/>
<path d="M69.522,259.908h372.955c4.513,0,8.17-3.658,8.17-8.17s-3.657-8.17-8.17-8.17H69.522c-4.513,0-8.17,3.658-8.17,8.17  S65.01,259.908,69.522,259.908z"/>
<path d="M504.886,281.735L504.886,281.735l-21.123-33.258l-7.912-31.781h17.084c4.513,0,8.17-3.658,8.17-8.17s-3.657-8.17-8.17-8.17  h-21.152l-21.314-85.618c-5.291-21.258-26.598-37.91-48.503-37.91h-55.6l-10.783-43.309c-3.079-12.365-15.472-22.053-28.216-22.053  H204.634c-12.743,0-25.137,9.687-28.217,22.053l-10.781,43.309h-55.6c-21.905,0-43.212,16.652-48.504,37.91l-21.317,85.618H19.064  c-4.513,0-8.17,3.658-8.17,8.17s3.657,8.17,8.17,8.17h17.084l-7.912,31.781L7.114,281.735C3.059,288.12,0,298.64,0,306.205v118.346  c0,4.512,3.657,8.17,8.17,8.17h2.723v59.643c0,4.512,3.657,8.17,8.17,8.17h85.963c4.513,0,8.17-3.658,8.17-8.17v-35.132  c0-4.512-3.657-8.17-8.17-8.17s-8.17,3.658-8.17,8.17v26.962H27.234v-51.472h116.51c0.004,0,0.009,0,0.013,0h224.623  c0.01,0,0.02,0.002,0.028,0.002c0.015,0,0.031-0.002,0.046-0.002h116.311v51.472h-69.622v-26.962c0-4.512-3.657-8.17-8.17-8.17  c-4.513,0-8.17,3.658-8.17,8.17v35.132c0,4.512,3.657,8.17,8.17,8.17h85.963c4.513,0,8.17-3.658,8.17-8.17v-59.643h2.723  c4.513,0,8.17-3.658,8.17-8.17V306.205C512,298.64,508.941,288.12,504.886,281.735z M192.272,37.466  c1.259-5.056,7.151-9.66,12.361-9.66h102.734c5.209,0,11.102,4.605,12.36,9.66l9.799,39.361H182.475L192.272,37.466z M16.34,306.205  c0-4.459,2.177-11.946,4.567-15.709l21.833-34.378c0.472-0.742,0.819-1.555,1.032-2.406l33.614-135.026  c3.445-13.832,18.395-25.517,32.648-25.517h229.914c0.009,0,0.016,0.002,0.025,0.002c0.011,0,0.023-0.002,0.035-0.002h61.957  c14.253,0,29.204,11.686,32.647,25.517l33.614,135.026c0.212,0.852,0.561,1.665,1.032,2.406l21.833,34.378l0,0  c2.39,3.763,4.567,11.25,4.567,15.709v110.176H373.94l-19.734-49.379c-1.241-3.104-4.245-5.139-7.587-5.139H165.38  c-3.341,0-6.347,2.035-7.587,5.139l-19.734,49.379H16.34V306.205z M356.342,416.381H155.658l15.257-38.177h170.172L356.342,416.381z  "/>
<path d="M40.851,375.482h30.743c24.355,0,44.17-19.814,44.17-44.17c0-24.355-19.814-44.17-44.17-44.17h-24.71  c-4.513,0-8.17,3.658-8.17,8.17c0,4.512,3.657,8.17,8.17,8.17h24.71c15.346,0,27.83,12.485,27.83,27.83  c0,15.346-12.484,27.83-27.83,27.83H40.851c-4.513,0-8.17,3.658-8.17,8.17C32.681,371.824,36.338,375.482,40.851,375.482z"/>
<path d="M396.236,331.312c0,24.356,19.815,44.17,44.17,44.17h30.743c4.513,0,8.17-3.658,8.17-8.17c0-4.512-3.657-8.17-8.17-8.17  h-30.743c-15.346,0-27.83-12.484-27.83-27.83c0-15.345,12.485-27.83,27.831-27.83h24.709c4.513,0,8.17-3.658,8.17-8.17  c0-4.512-3.657-8.17-8.17-8.17h-24.709C416.051,287.142,396.236,306.956,396.236,331.312z"/>
<path d="M298.165,44.146h-84.331c-4.513,0-8.17,3.658-8.17,8.17s3.657,8.17,8.17,8.17h84.331c4.513,0,8.17-3.658,8.17-8.17  S302.678,44.146,298.165,44.146z"/>
<g>
</g>
<g>
</g>
<g>
</g>
<g>
</g>
<g>
</g>
<g>
</g>
<g>
</g>
<g>
</g>
<g>
</g>
<g>
</g>
<g>
</g>
<g>
</g>
<g>
</g>
<g>
</g>
<g>
</g>
</svg>
